<?xml version="1.0" encoding="UTF-8"?>
<svg id="Layer_1" data-name="Layer 1" xmlns="http://www.w3.org/2000/svg" viewBox="107.9083 24.2500 233 443">
  <defs>
    <style>
      .cls-1 {
        fill: #fff;
      }

      .cls-2 {
        fill: #831618;
      }
    </style>
  </defs>
  <g>
    <path d="M378.85,297.39c0-77.26,.02-154.52,0-231.78,0-10.23-3.92-18.78-11.41-25.72-7.13-6.62-15.7-9.27-25.28-9.25-19.92,.03-39.84,.03-59.76,.03-58.61,0-117.22-.02-175.83-.03-11.25,0-20.56,4.3-27.93,12.8-6.22,7.16-8.29,15.61-8.28,24.93,.08,59.07,.04,118.14,.04,177.2,0,49.28-.01,98.56,0,147.85,0,11.62-.06,23.25,.17,34.87,.17,8.15,3.5,15.14,8.97,21.14,8.01,8.79,18.14,11.81,29.79,11.79,72.42-.12,144.85-.03,217.27-.1,7.93-.01,15.93,.83,23.79-.63,16.91-3.15,28.43-17.49,28.44-35.31,.03-42.6-.01-85.2-.01-127.81Zm-2.41-51.45h-.05c0,58.95,0,117.9,0,176.85,0,4.97-.29,9.89-2.05,14.62-4.77,12.86-17.1,21.24-31.42,21.24-76.68,0-153.37-.02-230.04-.03-2.54,0-5.07,.06-7.6-.03-18.05-.64-31.62-14.17-32.34-32.2-.03-.92-.02-1.84-.02-2.76,0-118.48,.02-236.95-.03-355.43,0-9.66,2.6-18.14,9.55-25.07,6.91-6.88,15.25-9.94,24.95-9.93,56.53,.06,113.07,.03,169.6,.03,22.11,0,44.22-.09,66.32,.03,16.42,.09,29.42,10.83,32.51,26.54,.83,4.21,.62,8.48,.62,12.74,0,57.8,0,115.6,0,173.4Z"/>
    <path class="cls-1" d="M376.44,245.94h-.05c0,58.95,0,117.9,0,176.85,0,4.97-.29,9.89-2.05,14.62-4.77,12.86-17.1,21.24-31.42,21.24-76.68,0-153.37-.02-230.04-.03-2.54,0-5.07,.06-7.6-.03-18.05-.64-31.62-14.17-32.34-32.2-.03-.92-.02-1.84-.02-2.76,0-118.48,.02-236.95-.03-355.43,0-9.66,2.6-18.14,9.55-25.07,6.91-6.88,15.25-9.94,24.95-9.93,56.53,.06,113.07,.03,169.6,.03,22.11,0,44.22-.09,66.32,.03,16.42,.09,29.42,10.83,32.51,26.54,.83,4.21,.62,8.48,.62,12.74,0,57.8,0,115.6,0,173.4Z"/>
  </g>
  <g>
    <path class="cls-2" d="M231.64,324.12c4.47,.43,10.63-1.97,13.59,.97,2.45,2.44,1.04,8.61,1.67,13.07,1.87,13.3,5.69,25.76,15.92,35.33,2.85,2.66,6.17,4.33,9.9,5.37,2.19,.61,4.25,.44,4.99-1.83,.8-2.47-1.28-3.5-3.22-4.23-1.11-.42-2.35-.52-3.46-.95-2.72-1.03-4.18-3-2.08-5.49,4.27-5.08,3.76-10.61,2.53-16.46-.56-2.67-1.85-6.03,.44-7.99,2.61-2.24,5.88-.28,8.33,1.19,6.99,4.2,14.1,7.1,22.56,6.67,4.71-.24,4.98,3.99,3.34,6.9-1.95,3.46-1.85,6.83-1.74,10.39,.24,7.65-.96,15.09-2.69,22.54-2.09,8.99-7.92,13.52-16.49,15.19-19.5,3.79-35.87-2.12-49.42-16.32-4.99-5.23-9-11.21-12.24-17.69-3.34-6.67-9.63-8.62-15.94-4.62-6.21,3.94-9.65,10-11.5,16.96-.89,3.35,1.02,5.5,3.99,6.34,2.85,.8,5.87,1.08,8.84,1.38,4.05,.42,6.68,2.22,7.45,6.45,.77,4.25-1.03,6.77-4.79,8.52-7.49,3.49-8.91,3-12.62-4.94-1.42-3.04-7-3.49-10.54-.86-4.59,3.4-4.86,8.98-.73,14.18,.92,1.16,2.94,2,1.77,3.92-.89,1.47-2.65,1.73-4.27,1.74-2.19,.01-4.39-.12-6.59-.24-4.54-.25-6.33-2.7-5.87-7.15,.48-4.57,.78-9.15,1.15-13.73,.22-2.71-.9-4.27-3.78-3.98-2.5,.26-5.68-1.22-6.32,3.35-.74,5.32-2.94,6.08-7.39,3.12-2.55-1.7-4.44-3.96-5.46-6.92-2.5-7.24-.22-10.62,7.32-10.68,4.6-.04,9.2-.11,13.79,.11,3.89,.19,5.13-1.62,4.27-5.08-.57-2.3-1.36-4.6-2.42-6.72-4.01-8.08-6.88-16.61-10.17-24.97-4.48-11.37-2.67-22.17,1.5-33.21,6.06-16.02,14.52-30.71,24.13-44.72,10.62-15.48,7.75-29.77-.51-45.07-2.1-3.88-15.56-6.17-19.26-3.61-2.31,1.6-1.8,3.87-.81,5.92,1.91,3.95,3.92,7.86,6.04,11.7,2.43,4.39,.65,6.25-3.75,6.78-3.22,.39-6.39,.38-9.41-1.01-2.55-1.17-3.52-2.81-2.45-5.73,2.69-7.36,1.1-12.52-3.96-13.84-5.43-1.42-11.39,3.24-12.79,9.87-.58,2.76,1.15,6.96-4.28,6.87-5.43-.09-10.83-3.42-11.88-7.51-.74-2.89,.42-5.03,2.39-6.97,3.59-3.55,7.73-6.33,12.27-8.48,3.5-1.65,6.03-3.92,3.73-7.87-2.26-3.89-5.32-2.61-7.97-.13-2.97,2.78-4.33,.66-5.12-1.82-1.39-4.41-.17-8.81,1.32-12.89,1.04-2.85,3.89-2.18,6.24-1.22,3.66,1.51,5.97,4.59,8.52,7.38,6.12,6.72,10.42,7.33,16.73,1.11,7.02-6.91,14.35-13.3,22.78-18.4,1.81-1.09,2.64-2.95,3.8-4.56,8.43-11.77,18.59-21.91,29.35-31.51,3.59-3.2,6.21-3.65,9.77,.59,5.16,6.14,11.7,10.84,19.08,14.22,1.24,.57,3.03,1.06,2.98,2.62-.07,2.28-2.36,1.6-3.74,2.04-3.42,1.09-7.02,1.73-10.28,3.16-3.51,1.54-6.34,3.98-7.16,8.21-1.41,7.24,.22,9.45,7.69,9.78,1.4,.06,2.82-.06,4.19,.16,1.83,.29,4.64-.86,5.14,1.71,.49,2.51-1.51,4.44-3.69,5.65-1.19,.66-2.62,.9-3.94,1.32-6.36,2.03-8.71,5.9-7.44,12.26,1.12,5.6,5,7.9,11.86,6.91,1.77-.25,3.49-.81,5.24-1.2,1.37-.3,2.84-2.55,4.07-.46,.91,1.54-.77,2.98-1.77,4.14-1.56,1.81-3.33,3.44-5.08,5.08-4.18,3.92-3.22,8.34-1.01,12.63,2.09,4.05,5.86,3.35,9.49,2.68,4.06-.74,7.56-2.45,10.42-5.49,1.02-1.08,1.91-3.13,3.79-1.93,1.57,1,.89,2.96,.61,4.46-1.38,7.37-6.75,11.58-12.61,15.19-3,1.85-4.95,3.98-4.64,7.65,.18,2.16-.08,4.57,2.44,5.67,2.27,1,4.31,.21,6.14-1.21,4.73-3.68,9.4-7.44,14.18-11.05,4.26-3.21,9.12-4.92,14.47-5.08,3.39-.1,5.55,1.13,2.7,4.4-8.28,9.48-16.74,18.95-27.48,25.67-4.74,2.97-10.84,2.31-16.43,2.41-2.76,.05-5.21,.58-6.3,3.53-1.57,4.26,.84,6.86,6.29,7.06,1.66,.06,4.11-1.07,4.82,.89,.74,2.04-1.41,3.59-2.85,4.85-4.29,3.76-9.68,3.09-14.83,3.47-3.67,.28-7.71-1.46-10.92,1.6-4.97,4.75-9.06,10.24-11.55,16.62-1.44,3.68,1.13,5.64,4.71,5.78,4.19,.17,8.39,.04,12.88,.04Zm-26.52-135.95c.18-1.32-.29-3.22-2.5-4.09-2.47-.98-4.46,.05-5.44,2.31-.94,2.17-1.51,4.54-1.94,6.88-2.44,13.17,1.5,25.37,6.13,37.35,5.66,14.64,5.25,28.44-4.23,41.49-4.22,5.81-8.13,11.86-12.18,17.79-1.6,2.35-3.66,4.87-.48,7.28,3.3,2.5,5.58,.22,7.39-2.41,4.3-6.25,8.36-12.67,12.8-18.83,10.87-15.09,10.93-31.21,4.77-47.9-4.67-12.67-8.88-25.33-4.32-39.86Zm86.43,185.73c3.57,.26,5.39-1.79,4.43-5.86-1.19-5.06-4.32-9.08-8.34-12.09-3.05-2.28-5.89-1.66-7.49,2.45-2.83,7.3,2.67,15.39,11.4,15.5Zm-87.5-35.25c-.2-1.06,.34-2.88-1.48-3.75-1.44-.68-2.79,0-3.84,.89-3.48,2.94-7,5.86-10.24,9.05-1.8,1.78-2.09,4.33-1.08,6.68,1.14,2.64,3.65,2.8,6.09,2.65,6.93-.42,10.22-5.17,10.55-15.52Zm-9.88-18.3c1.87-.07,5.07,.02,3.92-3.13-1.81-4.99-4.1-10.12-9.1-12.92-3.21-1.79-6.4,.11-6.45,3.46-.07,4.84,6.4,12.04,11.63,12.59Zm29.07,22.99c-.38-3.42-.27-7.19-4.75-7.94-3.14-.52-7.37,5.02-7.31,9.61,.05,3.75,1.64,7.08,5.79,6.99,5.35-.12,5.69-4.66,6.27-8.66Zm4.42-.67c-.12,3.73-.06,7.31,4.44,7.22,4.71-.09,6.36-3.6,6.42-7.76,.05-4.01-.99-8.15-5.81-8.14-6.15,.01-3.92,5.69-5.05,8.67Zm7.83,13.77c-3.75,.87-6.19,3.28-6.45,7.33-.21,3.38,2.22,4.68,5.09,4.36,3.61-.41,6.64-2.29,6.8-6.3,.13-3.19-1.93-5.08-5.45-5.38Zm-57.49-144.8c3.98-.23,7.18-1.52,7.68-5.93,.33-2.95-1.55-4.58-4.32-4.36-4.04,.32-7.49,2.41-8.22,6.47-.51,2.85,2.39,3.65,4.86,3.81Zm115.73,175.93c.3-3.66-1.57-5.08-4.27-5.04-3.97,.06-6.4,2.43-6.52,6.37-.08,2.78,1.29,5.28,4.59,5.09,4.16-.25,5.33-3.58,6.2-6.42Zm-49.63-5.37c3.61-.5,5.76-2.99,6.17-6.66,.31-2.8-1.65-4.72-4.37-4.44-3.91,.39-6.72,2.63-6.84,6.91-.08,2.98,1.97,4.09,5.04,4.19Zm-12.52-130.78c3.03-.22,5.65-.99,5.57-4.28-.09-4.02-3.45-5.13-6.6-5.42-2.95-.28-5.8,1.13-5.61,4.58,.22,3.99,3.79,4.47,6.64,5.12Zm-16.2-45.61c2.55-.43,6.03-.42,5.73-4.29-.29-3.68-3.43-4.45-6.69-4.39-2.92,.06-6.25,.36-5.98,4.07,.26,3.54,3.61,4.32,6.93,4.61Zm-36.23,137.72c3.19-.51,6-2.01,6.15-5.79,.13-3.35-2.48-5.07-5.39-5.17-4.12-.13-5.11,3.24-5.4,6.5-.25,2.89,1.6,4.27,4.64,4.46Zm14.29,25.27c-.47-2.96-1.83-5.63-5.33-5.85-3.53-.22-4.8,2.52-4.85,5.44-.07,3.72,2.78,5.14,5.9,5.28,2.76,.12,4.16-1.87,4.29-4.87Zm34.6-207.47c-.13-2.58-2.08-4.54-5.21-4.67-2.76-.11-5.45,1.18-5.13,4.49,.34,3.55,3.26,4.79,6.46,5.05,2.83,.22,3.92-1.47,3.88-4.87Zm16.75,98.33c-.21-2.79-.91-5.34-4.16-5.62-3.36-.3-4.49,2.13-4.65,4.92-.17,3.07,.98,5.79,4.38,5.96,3.29,.17,3.99-2.63,4.42-5.26Zm31.24,134.68c.11-2.85-1.05-5.09-4.33-5-3.4,.1-4.82,2.77-5.06,5.68-.24,2.91,1.93,4.46,4.57,4.4,2.85-.07,4.9-1.61,4.83-5.08Zm-45.57-133.42c-.22-2.78-.98-5.5-4.27-5.4-3.42,.1-3.81,3.18-3.81,5.76,0,2.57,.37,5.68,4,5.34,3.07-.29,4-2.87,4.08-5.7Zm30.07,124.51c-.13-2.16-.59-5.15-3.83-5.19-3.82-.05-4.58,3.37-4.82,6.38-.22,2.72,1.31,4.86,4.17,4.69,2.94-.18,4.45-2.31,4.49-5.88Zm-49.54-208.53c2.97-.48,5.13-1.9,5.16-5.27,.02-2.67-1.75-3.96-4.15-4.03-3.21-.1-5.3,1.68-5.55,4.88-.23,2.93,1.83,4.07,4.54,4.42Zm11.71,39.25c-.54-2.43-1.12-5.04-4.27-4.69-3.18,.35-3.96,2.98-3.94,5.73,.01,2.71,1.32,4.87,4.2,4.71,3.4-.18,3.39-3.31,4.01-5.76Zm-18.82,94.74c2.12-.59,5.63-.22,5.83-3.49,.23-3.87-3.45-3.69-6.11-3.89-2.5-.19-5.17,.38-5.16,3.52,.02,3,2.59,3.62,5.44,3.86Zm25.53-81.5c-2.65,.42-5.9,.61-6.15,4.14-.2,2.75,2.43,3.31,4.68,3.3,2.74-.01,6.13,.15,6.51-3.49,.31-2.97-2.45-3.62-5.04-3.94Zm-8.55,45.95c-.36-2.41-1.9-4.05-4.65-4.11-2.6-.05-4.17,1.51-4.04,4.09,.12,2.43,1.57,4.11,4.18,4.13,2.45,.02,4.2-1.07,4.51-4.12Zm12.83-4.39c-2.99,.65-3.67,2.93-3.67,5.42,0,2.71,1.96,4.06,4.32,3.72,2.37-.35,3.66-2.18,3.32-4.83-.31-2.43-1.25-4.17-3.96-4.3Zm-13.14,15.99c-2.68-.18-3.81,1.19-3.87,3.18-.09,3.15,1.65,5.39,4.62,6.2,2.38,.65,3.25-1.17,3.16-3.16-.13-2.89-.82-5.59-3.92-6.22Z"/>
    <path class="cls-2" d="M264.86,155c-14.49,.5-26.15-2.78-33.06-15.96-2.25-4.28-5.65-3.1-8.52-.82-5.81,4.62-12.08,8.5-18.39,12.35-1.02,.62-2.04,1.29-3.15,1.72-2.4,.94-5.63,2.59-7.23,.4-1.99-2.73,2.04-3.58,3.41-5.18,4.14-4.85,8.49-9.53,12.87-14.17,2.06-2.18,3.03-4.88,.75-6.75-2.26-1.85-4.57,.3-5.97,2.32-6.03,8.69-14.35,15.01-22.58,21.28-11.74,8.94-28.59,6.97-37.3-3.75-1.65-2.02-2.98-4.22-3.69-6.79-1.72-6.24-.45-10.96,3.27-11.74,7.18-1.49,12.91,1.67,14.34,7.94,1.56,6.82,3.17,7.88,10,6.82,5.51-.85,10.18-3.37,14.4-6.9,6.26-5.25,6.44-9.24,.58-14.85-3.18-3.05-6.41-6.04-8.47-10.02-.54-1.04-1.35-2.16-.28-3.25,1.01-1.03,2.24-.48,3.35-.08,3.66,1.34,6.23,4.28,9.31,6.47,9.89,7.03,15.92,5.07,19.83-6.35,1.61-4.72,3.15-9.52,5.33-13.98,7.36-15.06,23.18-19.38,37.7-10.59,4.75,2.88,8.35,6.84,10.96,11.64,2.08,3.83,4.94,5.1,9.3,4.78,7.56-.55,15.17-.53,22.77-.6,1.62-.02,4.06-1.25,4.72,1.06,.63,2.2-1.51,3.53-3.19,4.56-5.89,3.6-12.44,5.3-19.15,6.58-2.22,.43-6.26-.8-5.51,3.39,.63,3.56,4.18,2.22,6.57,1.98,6.6-.65,12.88-2.65,19.11-4.86,3.13-1.11,7.54-2.85,9.27,.5,1.89,3.69-2,6.38-5.05,8.32-8.83,5.63-18.47,5.5-28.37,4.02-2.98-.44-7.58-3.03-8.52,1.94-.81,4.26,3.62,5.85,7.12,6.7,5.09,1.24,10.34,.52,15.53,.51,5.99-.01,12.01-.23,17.93,.93,1.62,.32,3.86,.35,4.27,2.63,.41,2.22-.9,3.82-2.57,5.06-.95,.7-1.99,1.53-3.09,1.72-15.24,2.63-30.16,4.28-42.55-8.48-5.38-5.53-5.93-5.11-10.4,1.01-1.38,1.89-5.51,1.74-4.72,4.68,.93,3.43,4.66,4.69,7.64,6.3,3.33,1.8,6.71,3.52,10.03,5.35,.42,.23,.6,.9,1.39,2.18Zm-28.51-64.34c-9.53-.02-14.44,5.27-14.54,15.68-.09,9.25,5.54,14.81,14.88,14.69,7.87-.1,14.74-5.88,14.93-12.56,.36-12.41-4.25-17.78-15.27-17.81Z"/>
    <path class="cls-2" d="M291.92,182.95c1.97,.27,3.96,.43,5.91,.82,4.42,.88,9.65,2.12,9.52,7.35-.13,5.06-3.9,9.01-8.9,11.05-3.35,1.36-5.76-.2-7.81-2.71-2.32-2.85-4.91-5.46-8.85-5.5-2.87-.03-6.77-.55-7.34,3.3-.58,3.86-2.26,8.8,2.64,11.23,2.76,1.37,4.5,2.48,3.22,5.7-1.45,3.65-3.96,6.1-8.1,5.87-3.12-.17-5.32-1.99-5.68-5.18-.61-5.35-.92-10.73-1.38-16.1-.24-2.78,.27-5.99-.96-8.25-3.63-6.67-1.08-10.25,4.81-13.57,6.01-3.38,10.02-8.94,13.87-14.64,4.12-6.08,15.13-5.73,18.25,.28,2.28,4.4,1.02,7.76-3.7,9.33-2.06,.69-4.33,.73-6.42,1.37-3.54,1.08-7.31,2.63-6.57,7.15,.74,4.44,4.84,2.05,7.49,2.49Z"/>
    <path class="cls-2" d="M273.18,327.37c-1.6,0-3.2,0-4.8,0-4.25,.02-6.45,1.64-5.19,6.29,1.25,4.64,.04,8.82-3.35,12.08-3.27,3.15-6.72,2.1-7.21-2.34-1.65-15.12,1.46-28.97,11.89-40.63,2.61-2.91,6.01-3.77,9.72-3.79,3.35-.01,5.19,1.65,5.39,5.07,.2,3.3-.83,5.41-4.6,5.37-1.79-.02-3.61,.23-4.97,1.68-.85,.91-1.49,1.93-1.14,3.22,.37,1.33,1.42,1.78,2.73,1.9,2.38,.22,4.83,.22,7.1,.85,2.67,.74,5.62,1.7,4.85,5.59-.74,3.74-3.07,5.45-6.85,5.16-1.19-.09-2.37-.29-3.56-.45Z"/>
    <path class="cls-2" d="M236.08,111.96c-4.97,.04-9.27-3.01-9.01-6.79,.36-5.15,4.08-6.48,8.48-6.24,4.38,.23,9.28,.19,10.05,6.14,.5,3.87-3.87,6.85-9.52,6.89Z"/>
  </g>
</svg>