<?xml version="1.0" encoding="UTF-8"?>
<svg id="Layer_1" data-name="Layer 1" xmlns="http://www.w3.org/2000/svg" viewBox="128.9083 30.2195 233 443">
  <defs>
    <style>
      .cls-1 {
        fill: #fff;
      }

      .cls-2 {
        fill: #831618;
      }

      .cls-3 {
        fill: #16224d;
      }

      .cls-4 {
        fill: #0f592d;
      }
    </style>
  </defs>
  <g>
    <path d="M399.96,303.2c0-77.26,.02-154.52,0-231.78,0-10.23-3.92-18.78-11.41-25.72-7.13-6.62-15.7-9.27-25.28-9.25-19.92,.03-39.84,.03-59.76,.03-58.61,0-117.22-.02-175.83-.03-11.25,0-20.56,4.3-27.93,12.8-6.22,7.16-8.29,15.61-8.28,24.93,.08,59.07,.04,118.14,.04,177.2,0,49.28-.01,98.56,0,147.85,0,11.62-.06,23.25,.17,34.87,.17,8.15,3.5,15.14,8.97,21.14,8.01,8.79,18.14,11.81,29.79,11.79,72.42-.12,144.85-.03,217.27-.1,7.93-.01,15.93,.83,23.79-.63,16.91-3.15,28.43-17.49,28.44-35.31,.03-42.6-.01-85.2-.01-127.81Zm-2.41-51.45h-.05c0,58.95,0,117.9,0,176.85,0,4.97-.29,9.89-2.05,14.62-4.77,12.86-17.1,21.24-31.42,21.24-76.68,0-153.37-.02-230.04-.03-2.54,0-5.07,.06-7.6-.03-18.05-.64-31.62-14.17-32.34-32.2-.03-.92-.02-1.84-.02-2.76,0-118.48,.02-236.95-.03-355.43,0-9.66,2.6-18.14,9.55-25.07,6.91-6.88,15.25-9.94,24.95-9.93,56.53,.06,113.07,.03,169.6,.03,22.11,0,44.22-.09,66.32,.03,16.42,.09,29.42,10.83,32.51,26.54,.83,4.21,.62,8.48,.62,12.74,0,57.8,0,115.6,0,173.4Z"/>
    <path class="cls-1" d="M397.55,251.75h-.05c0,58.95,0,117.9,0,176.85,0,4.97-.29,9.89-2.05,14.62-4.77,12.86-17.1,21.24-31.42,21.24-76.68,0-153.37-.02-230.04-.03-2.54,0-5.07,.06-7.6-.03-18.05-.64-31.62-14.17-32.34-32.2-.03-.92-.02-1.84-.02-2.76,0-118.48,.02-236.95-.03-355.43,0-9.66,2.6-18.14,9.55-25.07,6.91-6.88,15.25-9.94,24.95-9.93,56.53,.06,113.07,.03,169.6,.03,22.11,0,44.22-.09,66.32,.03,16.42,.09,29.42,10.83,32.51,26.54,.83,4.21,.62,8.48,.62,12.74,0,57.8,0,115.6,0,173.4Z"/>
  </g>
  <g>
    <path class="cls-3" d="M345,304.57c-.19-21.42-4.73-38.96-14.33-55.12q-2.44-4.11,1.4-6.77c1.65-1.15,3.39-2.21,4.92-3.51,1.9-1.62,2.91-1.16,4.2,.87,11.04,17.47,16.76,36.56,17.39,57.15,1.03,33.26-10.17,61.99-33.37,85.69-21.83,22.31-48.73,34.09-79.95,34.89-41.09,1.05-74.03-15.7-98.37-48.4-18.02-24.21-24.99-51.99-20.87-81.99,4.87-35.45,21.96-63.73,52.11-83.37,23.25-15.14,48.94-21.26,76.67-18.37,2.68,.28,3.79,1.14,3.17,3.94-.52,2.36-.94,4.78-.97,7.18-.04,2.81-1.62,2.66-3.6,2.52-9.58-.68-19.2-.83-28.64,.91-32.9,6.08-57.87,23.55-73.9,53.06-13.25,24.39-15.67,50.25-7.87,76.74,8.66,29.41,26.99,51.36,54.91,64.06,37.73,17.16,74.15,13.32,107.2-11.65,26.34-19.9,39.06-47.48,39.92-77.82Z"/>
    <path class="cls-4" d="M229.21,293c3.66,2.17,6.63,3.99,9.65,5.7,2.74,1.55,4.73,3.71,5.84,6.67,.76,2.02,.76,3.93-.79,5.63-1.67,1.83-3.69,1.88-5.83,1.12-5.8-2.06-10.04-6.22-14.07-10.63-.14-.15-.25-.31-.38-.47-4.94-5.98-4.93-5.94-12.39-3.69-1.69,.51-2.06,1.06-1.17,2.73,3.4,6.39,8.63,11.11,14.13,15.55,3.36,2.72,6.98,5.12,10.44,7.72,1.65,1.24,2.74,2.71,1.39,4.88-1.31,2.11-3.14,2.74-5.44,2.02-3.43-1.08-6.24-3.26-9.08-5.33-5.88-4.28-11.53-8.82-15.98-14.66-1.97-2.59-3.52-5.45-4.45-8.54-.76-2.52-2.16-3.48-4.75-3.68-15.01-1.15-25.81-8.93-33.13-21.75-3.84-6.73-3.76-13.84,.32-20.4,5.05-8.12,10.59-15.93,15.93-23.87,.39-.58,.84-1.13,1.31-1.65,.9-1,2.06-1.35,3.29-.89,1.14,.42,1.16,1.62,1.16,2.59,.02,2.98-.73,5.73-2.36,8.3-3.57,5.61-7.48,11-10.59,16.9-2.91,5.54-2.8,10.96,.4,16.38,.97,1.63,2.2,2.17,3.99,2.01,9.71-.89,17.38-4.83,21.56-14.16,1.36-3.05,2.51-6.16,3.21-9.43,1.06-4.98,3.75-8.81,7.95-11.67,11.02-7.48,22.26-14.57,34.73-19.44,6.61-2.58,13.5-4.09,20.61-4.29,4.16-.12,4.75,.95,2.85,4.55-1.46,2.77-3.72,4.42-6.75,5.11-15.59,3.55-29.54,10.47-42.05,20.37-3.77,2.98-7.01,6.43-9.01,10.81-2.45,5.35-5.44,10.36-9.01,15-1.71,2.22-1.18,3.24,1.17,4.17,1.68,.66,3.27,1.58,4.83,2.49,2.57,1.49,2.64,2.87,.32,4.85-3.07,2.63-7.38,3-11.24,.64-3.13-1.91-6.24-2.03-9.54-.81-.62,.23-1.6,.17-1.62,1.07-.02,.83,.91,.95,1.51,1.26,7.76,3.89,15.92,4.08,24.2,2.43,7.02-1.4,14.01-2.88,21.14-3.61,8.24-.84,15.81,.88,22.6,5.75,6.31,4.52,8.57,10.67,7.46,18.21-.25,1.68-.89,3.23-2.84,3.43-1.9,.2-3.36-.81-4.16-2.45-.69-1.44-1.16-2.99-1.25-4.64-.33-5.92-3.52-9.62-9.01-11.58-4.71-1.68-9.44-2.21-15.12-.69Z"/>
    <path class="cls-4" d="M279.12,250.36c10.24-.03,17.58,2.9,23.77,8.86,1.98,1.91,1.99,3.58,.52,5.82-4.07,6.15-9.9,10.25-15.91,14.16-3.38,2.2-6.78,4.36-10.23,6.43-2.15,1.29-2,3.03-1.3,4.97,.77,2.15,2.4,1.34,3.8,.99,11.06-2.78,20.65-7.72,27.32-17.5,3.7-5.42,8.6-9.85,13.38-14.33,.44-.41,.93-.78,1.43-1.11,1.19-.76,2.48-1.8,3.83-.61,1.27,1.12,.73,2.54,.07,3.88-1.31,2.65-3.12,4.93-5.17,7.03-5.65,5.76-10.94,11.86-15.56,18.46-3.73,5.32-9.28,6.72-14.97,8.15-3.42,.86-6.79,1.93-10.22,2.71-2.1,.48-2.68,1.6-2.63,3.64,.19,7.13-.5,14.12-4.31,20.4-8.21,13.53-23.35,8.65-30.05,.42-1.34-1.65-1.78-3.83-.23-5.58,1.56-1.75,3.33-.6,4.92,.33,2.09,1.22,4.1,2.58,6.24,3.69,4.71,2.46,9.56,.99,12.13-3.68,3.46-6.28,2.41-12.93,1.28-19.49-.88-5.09-2.34-9.97-6.43-13.67-4.29-3.88-9.5-4.58-14.89-4.86-3.64-.19-7.25,.22-10.85,.69-5.52,.72-10.85-.04-16.03-1.97-.83-.31-1.61-.81-2.33-1.33-.78-.57-1.31-1.47-.85-2.37,.7-1.35,1.55-.16,2.26,.13,2.04,.83,4.11,.79,6.24,.54,9-1.08,18.01-2.09,27.08-2.53,6.88-.33,12.96,1.67,18.13,6.13,1.72,1.48,2.96,1.51,4.73,.23,3.68-2.65,7.5-5.1,11.23-7.68,1.06-.73,2.33-1.55,1.91-3.1-.38-1.42-1.67-1.88-3.02-2.18-6.39-1.44-12.61-.62-18.76,1.35-2.4,.77-4.81,1.49-7.24,2.14-2.43,.66-3.43-.45-3.16-2.84,.67-5.96,3.52-10.49,9.08-12.94,5.21-2.29,10.7-3.55,14.79-3.39Z"/>
    <path class="cls-4" d="M203.77,351.18c-5.88,.21-10.69-1.73-14.23-6.53-.61-.82-1.27-1.71-.64-2.74,.61-1,1.6-.46,2.48-.39,6.09,.52,12.14,2.2,18.31,.79,.77-.17,1.84,.02,2.11-.86,.27-.87-.7-1.35-1.26-1.9-3.48-3.4-7.4-6.2-11.67-8.54-4.18-2.29-8.36-2.5-12.73-.43-3.46,1.64-7.02,3.06-10.56,4.51-4.48,1.83-8.76,1.3-12.53-1.68-3.8-3-7.7-5.84-11.74-8.5-1.14-.75-2.58-1.51-2.29-3.23,.29-1.75,1.97-1.9,3.27-2.25,5.71-1.54,10.45,.12,14.48,4.39,3.17,3.36,3.25,3.29,7.3,1,4.16-2.36,8.58-4.03,13.29-4.78,2.12-.34,2.42-1.21,1.97-3.05-1.18-4.86-1.59-5.34-6.29-4.02-7.79,2.19-11.11,.59-17.3-8.74-1.65-2.49-2.59-5.45-5.34-7.16-3.64-2.26-4.66-1.8-5.05,2.37-.35,3.75,.26,7.44,.53,11.15,.09,1.18,.35,2.48-.95,3.26-1.35,.79-2.51,.17-3.64-.57-2.83-1.85-4.74-4.49-5.53-7.68-1.83-7.4-1.02-14.6,2.47-21.44,1.03-2.03,2.8-3.13,4.91-3.73,4.02-1.14,6.13,.52,5.53,4.58-.3,2.04,.11,3.09,2.11,3.89,4.44,1.78,7.8,5,10.35,8.97,3.15,4.91,7.19,7.67,13.3,6.88,2.5-.32,5.01,.38,7.43,1.08,4.82,1.38,7.31,4.49,7.25,9.47-.03,3.2,1.16,5.3,4.05,6.74,6.82,3.4,12.86,7.93,18.04,13.52,1.57,1.69,3,2.26,5.28,1.64,3.67-1,7.21-.21,10.45,1.72,2.29,1.37,2.47,2.93,.62,4.89-2.81,2.99-6.69,3.76-10.41,4.36-7.75,1.24-15.57,2.04-23.37,3.02Z"/>
    <path class="cls-4" d="M215.7,366.39c2.99,3.76,6.86,5.1,10.32,7.02,1.32,.73,2.77,1.22,4.06,1.99,1.93,1.15,3.51,1.82,5.52-.24,1.53-1.57,4.2-.17,4.39,2.09,.08,.98-.19,1.99-.34,2.99-.55,3.76,1.76,6.83,5.48,7.28,1.81,.22,1.92-1.11,2.01-2.32,.19-2.83,.77-5.58,1.62-8.28,.49-1.55,1.34-2.74,3.16-2.73,1.86,.01,2.98,1.04,3.52,2.76,.73,2.34,1.06,4.77,.65,7.17-.48,2.84,.64,2.76,2.74,1.96,7.25-2.74,13.69-6.77,19.51-11.85,1.44-1.25,2.74-2.68,4.54-3.47,.93-.41,1.88-.9,2.79,.01,.92,.93,.79,1.94,.27,3.04-1.35,2.87-3.19,5.39-5.53,7.49-9.27,8.32-19.96,13.49-32.51,14.47-3.14,.24-6.21-.07-9.27-.85-4.13-1.06-6.75-3.65-7.62-7.7-.49-2.26-1.68-2.91-3.67-3.66-4.87-1.83-9.35-1.58-13.96,.78-2.4,1.23-5.11,1.84-7.67,2.74-1.9,.66-3.59,.2-5.09-1.02-1.98-1.61-1.94-3.86,.26-5.2,2.83-1.73,5.81-3.21,8.72-4.82,.66-.37,1.72-.51,1.55-1.56-.15-.9-1.1-1.07-1.83-1.4-8.79-3.92-16.03-.55-22.62,5.04-3.19,2.71-3.79,2.79-5.3-1.18-.89-2.35-2.61-4.03-4.31-5.74-1.64-1.64-3.38-3.18-4.92-4.9-.99-1.11-1.99-2.44-.6-4,1.27-1.43,2.75-1.43,4.38-.68,2.25,1.04,3.81,2.94,5.65,4.49,5.32,4.47,5.25,4.48,10.01-.72,.98-1.07,.94-1.67-.02-2.72-1.98-2.14-3.81-4.43-5.62-6.72-.65-.83-1.69-1.84-.97-2.94,.78-1.19,2.02-.42,3.02-.06,2.08,.75,4.26,1.35,6.18,2.42,10.78,6.02,21.71,4.76,32.72,.86,1.61-.57,3.19-1.25,4.83-1.72,6.63-1.93,10.97,1.92,9.94,8.78-.55,3.68-3.28,6.79-6.48,7.56-2.16,.52-3.19-.07-3.37-2.41-.4-5.07-.63-5.16-5.74-3.93-3.21,.77-6.38,1.75-10.36,1.92Z"/>
    <path class="cls-2" d="M341.57,153.91c.14-3.22,.29-6.44,.43-9.66,.08-1.98-2.83-4.77-5.66-5.27-2.21-.39-2.19,1.73-2.81,2.9-2.45,4.62-4.81,9.3-7.09,14.02-.81,1.69-1.69,1.95-3.28,1.03-1.74-1-3.55-1.93-5.43-2.64-2.25-.85-2.59-1.95-1.46-4.1,4.2-8.03,8.24-16.14,12.35-24.22,3.33-6.55,6.72-13.08,9.95-19.68,.99-2.01,1.91-2.7,4.12-1.52,6.05,3.21,12.26,6.11,18.31,9.32,6.86,3.64,10.18,10.58,8.84,17.95-1.19,6.57-6.64,11.81-13.95,12.77-2.8,.37-3.2,1.63-3.17,3.92,.08,6.65,.07,13.3,.05,19.95,0,3.06-.12,2.77-3.07,1.85-7.09-2.21-9.98-6.58-8.22-13.9,.21-.86,.03-1.81,.03-2.71,.02,0,.04,0,.06,0Zm9.71-19.04c3.82,.04,5.78-1.5,6.84-4.35,1.06-2.84,.74-5.35-1.77-7.27-2.72-2.09-5.85-3.46-8.91-4.97-1.28-.63-2.1-.25-2.69,.93-1.44,2.86-2.88,5.73-4.32,8.6-.43,.86-.77,1.78,.3,2.35,3.61,1.92,7.09,4.14,10.55,4.71Z"/>
    <path class="cls-2" d="M202.64,126.8c0,9.46-3.51,17.05-12.45,21-8.78,3.88-17.48,3.69-25.28-2.74-4.48-3.69-6.39-8.96-8.14-14.23-1.92-5.78-2.91-11.77-2.25-17.86,1.03-9.5,7.19-16.18,16.84-18.66,10.23-2.62,18.56,.17,24.32,8.14,4.21,5.83,6.91,15.3,6.96,24.36Zm-36.88-9.58c.26,5.84,1.98,12.61,5.98,18.65,2.63,3.96,6.5,5.25,11.39,4.06,4.45-1.09,7.24-4.06,7.82-8.53,1.11-8.58-1.47-16.33-5.62-23.66-.81-1.42-2.06-2.45-3.54-3.2-8.07-4.12-16.34,1.72-16.03,12.68Z"/>
    <path class="cls-2" d="M227.89,108.16c3.36-4.67,6.51-9.04,9.66-13.42,.12-.16,.2-.35,.32-.51q5.89-8.6,16.47-8.31c.65,.02,1.53-.42,1.9,.37,.34,.74-.41,1.27-.8,1.82-3.82,5.43-7.53,10.94-11.56,16.21-1.51,1.99-1.37,3.38-.19,5.35,5.56,9.22,11.01,18.51,16.46,27.8,1.88,3.2,1.83,3.23-1.98,3.33-1.11,.03-2.26-.13-3.32,.1-4.93,1.1-7.71-1.04-9.81-5.45-2.55-5.35-5.72-10.4-8.67-15.55-1.79-3.14-1.49-2.76-3.91-.41-5.19,5.04-4.66,11.08-4.19,17.4,.4,5.4,1.36,5.44-5.1,5.36q-6.52-.08-6.72-6.57c-.48-15.09-.9-30.19-1.5-45.28-.1-2.63,.56-3.76,3.28-3.44,1.29,.15,2.62,0,3.92-.05,4.2-.18,4.22-.19,4.34,4.13,.12,4.13,.17,8.25,.28,12.38,.04,1.47,.02,2.97,1.09,4.74Z"/>
    <path class="cls-2" d="M291.43,100.2c-1.27-.07-1.89,.47-2.13,1.69-.47,2.37-.99,4.73-1.56,7.08-.45,1.82,.32,2.56,2.04,2.88,4.16,.77,8.28,1.71,12.44,2.47,2.2,.4,3.3,1.04,2.68,3.74-1.5,6.58-1.34,6.62-8.11,5.43-2.87-.51-5.76-.96-8.61-1.59-2.12-.47-3.22,.12-3.58,2.34-.44,2.68-1.03,5.34-1.68,7.98-.52,2.11,.14,3.2,2.31,3.62,6.52,1.26,13.01,2.71,19.54,3.89,2.56,.47,3.7,1.15,2.83,4.12-1.82,6.22-1.67,6.27-8.31,4.88-9.16-1.91-18.31-3.9-27.49-5.7-2.16-.42-2.55-1.33-2.14-3.31,3.41-16.36,6.76-32.72,10.07-49.1,.38-1.86,1.3-2.23,3-1.87,10.83,2.28,21.66,4.54,32.5,6.75,.98,.2,1.49,.49,1.17,1.55-.03,.1-.06,.19-.07,.29q-1.09,7.65-8.64,6.13c-5.42-1.09-10.84-2.19-16.26-3.28Z"/>
    <path class="cls-4" d="M335.63,287.97c-.21,5.66-1.62,12.47-2.95,19.29-.95,4.87-.4,9.21,3.26,12.84,.07,.07,.12,.16,.19,.24,4.66,5.57,4.09,7.37-3.03,9.3-3.81,1.03-6.11,3.66-7.83,7.02-4.23,8.24-8.73,16.34-13.65,24.2-2.64,4.21-5.76,8-9.51,11.28-1.41,1.23-3.03,1.94-4.81,2.38-1.46,.37-2.91,.46-3.86-.86-.95-1.31-.02-2.46,.73-3.55,5.38-7.8,10.59-15.7,15.39-23.87,2.55-4.34,4.96-8.76,7.38-13.17,3.47-6.31,4.13-12.94,2.35-19.9-.95-3.7-1.73-7.45-2.56-11.19-.48-2.17,.17-2.86,2.29-1.78,1.34,.68,2.75,1.24,4.14,1.83,.72,.3,1.49,1.07,2.21,.53,.79-.59,.11-1.49-.05-2.24-.71-3.3-2.39-6.18-3.92-9.13-.51-.98-1.08-1.94-1.58-2.92-3.27-6.46-3.06-7.05,3.65-9.32,1.58-.54,2.32-1.38,2.08-3.11-.2-1.39-.17-2.81-.25-4.22-.07-1.2,.28-2.24,1.37-2.82,1.19-.63,2.15,.16,3,.84,2.89,2.28,4.6,5.26,5.18,8.92,.43,2.69,.72,5.39,.76,9.43Z"/>
    <path class="cls-4" d="M279.82,331.48c-.38,2.63-1.28,5.51-2.51,8.28-1.76,3.95-2.31,8.1-2.28,12.38,.01,1.8,.55,2.31,2.37,1.57,5.87-2.4,10.13-6.84,14.49-11.15,.8-.8,.79-1.82,.3-2.81-5.91-11.99-.8-21.57,6.7-30.62,1.68-2.03,3.62-3.78,6.17-4.7,1.6-.58,3.22-.85,4.4,.7,1.08,1.42,.52,2.8-.4,4.16-2.16,3.17-4.58,6.12-7.1,9-2.97,3.39-4.29,7.24-3.11,11.73,.17,.64,.21,1.61,1.08,1.59,.45,0,.96-.65,1.32-1.1,1.27-1.56,2.43-3.21,3.74-4.74,.77-.9,1.66-2.01,3-1.64,1.54,.42,1.51,1.98,1.75,3.24,.25,1.34-.17,2.59-.61,3.83-4.51,12.43-13.03,21.07-25.01,26.42-1.1,.49-2.21,1.02-3.37,1.33-3.68,.98-6.54,2.73-7.92,6.61-.74,2.09-2.57,3.57-4.41,4.86-1.3,.91-2.7,1.64-4.17,.62-1.57-1.09-1.45-2.73-.97-4.38,.76-2.61,1.56-5.21,2.22-7.84,1.3-5.14-.09-10.45,.98-15.64,1.13-5.45,3.33-10.31,6.91-14.57,1.11-1.32,2.46-1.73,4.04-1.02,1.47,.67,2.46,1.74,2.37,3.89Z"/>
    <path class="cls-2" d="M149.13,152.45c-.33,5.22-2.79,9.05-7.45,11.53-5.36,2.85-10.69,3.26-16.1,.21-1.59-.9-1.59-2.27-.41-3.18,2.1-1.63,.88-6.46,5.43-5.59,.58,.11,1.1,.49,1.66,.7,1.54,.57,2.97,.4,4.23-.7,1.32-1.15,1.51-2.65,.94-4.14-1.41-3.66-2.9-7.28-4.45-10.88-3.67-8.5-7.32-17-11.13-25.44-1-2.21-.63-3.3,1.67-3.99,1.63-.49,3.23-1.17,4.72-1.99,2.32-1.29,3.52-.71,4.53,1.75,3.83,9.3,7.85,18.52,11.8,27.77,1.22,2.87,2.44,5.73,3.62,8.62,.69,1.7,.97,3.48,.95,5.34Z"/>
    <path class="cls-4" d="M296.66,167.88c-.59,3.88-2.29,7.43-4.94,10.61-3.83,4.57-8.22,8.57-12.45,12.74-4.04,3.98-7.49,8.4-10.35,13.32-1.92,3.31-4.13,6.47-7.26,8.78-.83,.61-1.95,1.44-3.03,.62-.98-.74-.34-1.87-.11-2.81,1.41-5.66,3.2-11.22,3.56-17.12,.24-3.83,.38-7.64,.08-11.46-.26-3.31,.4-6.41,1.88-9.35,.83-1.65,1.98-2.91,4-2.51,2.03,.4,2.18,2.14,2.3,3.77,.15,2-.16,4.03,.38,6.01,.35,1.27,1.06,2.23,2.3,2.58,1.27,.35,2.08-.58,2.75-1.47,3.62-4.84,7.19-9.71,10.8-14.56,.66-.89,1.34-1.78,2.13-2.55,1.36-1.34,2.78-2.92,4.96-2.01,2.22,.92,2.83,2.97,3.01,5.39Z"/>
    <path class="cls-4" d="M326.58,178.33c-.52,3.97-2.83,7.22-5.86,9.98-6.01,5.5-13.17,9.23-20.35,12.87-5.71,2.9-10.99,6.15-14.8,11.58-2.43,3.46-6.33,4.93-10.58,4.86-2.65-.05-3.4-1.51-1.67-3.48,3.88-4.43,6.41-9.45,7.77-15.15,.53-2.25,2.24-3.62,4.39-4.18,12.94-3.42,23.76-10.25,32.7-20.14,1.56-1.72,3.39-2.6,5.65-1.6,2.12,.94,2.63,2.88,2.76,5.26Z"/>
    <path class="cls-4" d="M179.51,263.62c.2-.65,.46-1.72,.85-2.75,2.82-7.39,6.43-14.27,11.87-20.16,4.58-4.95,7.44-10.98,9.51-17.34,1.21-3.72,3.17-5.54,7.45-5.34,5.34,.25,10.61-.95,15.69-2.69,3.91-1.34,7.93-2.27,12-2.97,1.33-.23,3.02-.43,3.71,1.16,.65,1.53-.77,2.32-1.71,3.18-5.69,5.2-12.55,8.21-20.05,9.05-7.72,.86-12.81,4.44-16.02,11.41-2.74,5.96-6.44,11.34-11.04,16.12-3.37,3.5-5.53,7.89-7.79,12.17-.59,1.12-1.42,2.6-2.93,1.99-1.25-.51-1.55-2.01-1.53-3.83Z"/>
    <path class="cls-4" d="M218.01,256.61c.05-8.68,6.87-15.32,15.71-15.29,8.71,.03,15.27,6.63,15.23,15.33-.04,8.75-6.85,15.57-15.51,15.54-8.7-.02-15.47-6.86-15.42-15.59Zm15.37,8.52c4.48,.04,8.62-4,8.61-8.39-.01-4.37-4.2-8.45-8.64-8.42-4.13,.03-8.21,4.27-8.18,8.51,.03,4.57,3.68,8.26,8.21,8.3Z"/>
    <path class="cls-4" d="M278.25,233.32c-2.13,1.07-2.63,2.88-3.89,3.96-1.43,1.23-2.87,2.4-4.84,1.31-1.99-1.11-2.66-2.9-2.26-5.13,1.54-8.66,14.15-15.51,22.14-12.05,1.74,.76,2.46,1.89,1.92,3.81-2.01,7.19-5.44,13.62-10.24,19.33-1.13,1.35-2.67,2.04-4.31,1.28-1.81-.83-1.29-2.52-.91-3.98,.71-2.69,1.5-5.36,2.39-8.53Z"/>
    <path class="cls-4" d="M293.64,239.08c.38,.13,.95,.3,1.5,.54,4.6,2.03,8.99,1.63,13.21-1.07,2.13-1.36,4.45-2.34,6.89-2.98,1.33-.35,2.65-.36,3.43,1.07,.72,1.32,.42,2.5-.6,3.57-1.6,1.67-3.06,3.49-4.78,5.03-2.07,1.85-2.29,3.42-.28,5.53,1.58,1.66,2.8,3.67,4.07,5.59,.65,.99,1.29,2.14,.18,3.29-1.07,1.1-2.32,1.56-3.82,.95-.56-.23-1.1-.5-1.63-.78-6.13-3.13-11.45-7.45-16.97-11.48-1.54-1.13-2.85-2.58-3.78-4.27-1.24-2.27,.09-4.97,2.57-4.99Z"/>
    <path class="cls-4" d="M174.04,352.69c.06,4.71-3.11,6.97-7.24,5.39-2.38-.91-4.57-2.2-6.25-4.11-3.88-4.37-7.26-9.13-10.46-14.02-1.03-1.58-1.19-3.25-.02-4.79,1.08-1.42,2.73-1.91,4.34-1.36,8.89,3.04,15.52,8.68,19.38,17.36,.24,.53,.2,1.18,.25,1.53Z"/>
    <path class="cls-4" d="M299.22,223.74c-1.62-.09-3.16-.78-3.95-2.5-.73-1.58-.08-2.95,1.06-4.1,6.08-6.16,12.28-12.22,19.01-17.68,.76-.62,1.71-1.09,2.66-1.36,1.56-.44,3.25-.77,4.5,.68,1.34,1.57,.4,3.07-.49,4.41-4.89,7.38-11.13,13.48-18.09,18.88-1.4,1.08-3.34,1.66-4.69,1.67Z"/>
    <path class="cls-4" d="M329.82,209.16c3.03,.08,4.73,2.86,3.17,5.51-1.11,1.88-2.54,3.62-4.05,5.21-3.65,3.87-7.45,7.59-11.56,10.98-1.41,1.16-2.94,2.06-4.67,2.67-1.69,.6-2.97,.07-4-1.21-1.01-1.27-.79-2.62,.08-3.89,2.06-3,4.66-5.52,7.25-8.03,3.46-3.35,7.05-6.57,10.6-9.81,.89-.81,1.81-1.64,3.18-1.43Z"/>
    <path class="cls-4" d="M247.53,234.03c1.64-.08,3.41,.1,4.59,1.12,2.93,2.53,6.09,2.67,9.58,1.74,1.34-.36,2.99-.96,3.96,.31,1.13,1.49,.04,3.15-.69,4.5-3.2,5.94-12.39,7.26-18.23,2.67-1.02-.8-1.9-1.78-2.78-2.74-1.41-1.52-2.55-3.16-1.58-5.39,.7-1.61,2.24-2.26,5.16-2.21Z"/>
    <path class="cls-4" d="M261.62,346.47c-.06,3.65-1.83,5.09-5.13,3.85-4.31-1.62-8.98-1.08-13.3-2.54-1.71-.58-3.85-.86-3.87-3.13-.02-2.16,1.97-2.95,3.69-3.45,4.29-1.23,8.7-1.72,13.12-.9,3.56,.66,5.55,3.07,5.5,6.17Z"/>
    <path class="cls-4" d="M232.82,251.93c2.16-.08,4.35,1.9,4.49,4.07,.14,2.11-1.91,4.28-4.14,4.38-2.21,.1-4.41-1.89-4.48-4.04-.07-2.18,1.94-4.33,4.12-4.41Z"/>
  </g>
</svg>